# xmcd
# Track frame offsets:
# 150
# 16902
# 31294
# 51004
# 67318
# 81687
# 95133
# 116412
# 137109
# 151027
# 172442
# 196818
# 213992
# 238613
# 257183
#
# Disc length: 3672 seconds
# Revision: 0
# Processed by: cddbd v1.5.2PL0 Copyright (c) Steve Scherf et al.
# Submitted via: VisiTrax 2.9.10.228 - For more info visit www.synapsa.com
#
DISCID=db0e560f
DTITLE=Margaret Becker, Maire Brennan, Joanne Hogg, Kristyn GettyVarious Arti
DTITLE=sts - New irish hymns
DYEAR=2008
DGENRE=Gospel
TTITLE0=Glorius light
TTITLE1=Cross of Jesus
TTITLE2=Beneat the cross
TTITLE3=Hear all creation
TTITLE4=Your hand o god has guided
TTITLE5=Jesus ever abiding friend
TTITLE6=Fullnes of grace
TTITLE7=When love came down to earet
TTITLE8=Oh breat of God
TTITLE9=You´re the word of God the father
TTITLE10=From the breaking of the dawn
TTITLE11=May the peace of God
TTITLE12=Born where the shadows lie
TTITLE13=When trails come
TTITLE14=Oh my soul come praise your king
EXTD=
EXTT0=
EXTT1=
EXTT2=
EXTT3=
EXTT4=
EXTT5=
EXTT6=
EXTT7=
EXTT8=
EXTT9=
EXTT10=
EXTT11=
EXTT12=
EXTT13=
EXTT14=
PLAYORDER=
